<?xml version="1.0" encoding="UTF-8" standalone="no"?>
<!-- Created with Inkscape (http://www.inkscape.org/) -->

<svg
   width="135.39844mm"
   height="135.39845mm"
   viewBox="0 0 135.39844 135.39845"
   version="1.1"
   id="svg1"
   xml:space="preserve"
   xmlns="http://www.w3.org/2000/svg"
   xmlns:svg="http://www.w3.org/2000/svg"><defs
     id="defs1" /><g
     id="layer1"
     transform="translate(-37.300778,-11.888672)"><path
       style="color:#000000;fill:#000000;stroke-linecap:round;stroke-linejoin:round;stroke-miterlimit:0;-inkscape-stroke:none"
       d="m 105.51953,11.888672 c -11.591336,-1.49e-4 -21.039213,9.445772 -21.039061,21.037109 1.68e-4,11.591113 9.44795,21.037259 21.039061,21.03711 4.64012,-6.7e-5 8.89472,-1.561904 12.37891,-4.121094 l 17.02148,17.154297 c -2.65814,3.522539 -4.29485,7.853648 -4.29492,12.591797 -6e-5,4.958692 1.79972,9.46447 4.68555,13.066406 L 118.21094,109.5918 c -3.54036,-2.70637 -7.906,-4.37884 -12.69141,-4.37891 -10.62362,-1.4e-4 -19.353169,7.96217 -20.751952,18.21094 H 79.089844 C 77.69114,113.17521 68.96133,105.21304 58.337891,105.21289 c -11.591116,-1.5e-4 -21.036944,9.44599 -21.03711,21.03711 -1.5e-4,11.59134 9.445772,21.03726 21.03711,21.03711 10.978632,-1.6e-4 19.929408,-8.50343 20.855468,-19.24805 h 5.46875 c 0.926055,10.74485 9.87855,19.24819 20.857421,19.24805 11.59112,-1.7e-4 21.03531,-9.446 21.03516,-21.03711 -8e-5,-5.14317 -1.9319,-9.80226 -5.01367,-13.46289 l 17.03125,-16.869141 c 2.93923,2.362244 6.4897,3.928183 10.40625,4.435551 v 5.13086 c -10.31691,1.33652 -18.35337,10.0934 -18.35352,20.76562 -1.5e-4,11.59111 9.44599,21.03694 21.03711,21.03711 11.59134,1.5e-4 21.03726,-9.44577 21.03711,-21.03711 -1.6e-4,-10.93051 -8.42984,-19.84897 -19.10742,-20.8418 v -4.97851 c 10.67782,-0.992821 19.10756,-9.911046 19.10742,-20.841799 -1.7e-4,-11.591113 -9.446,-21.03726 -21.03711,-21.03711 -5.19043,7.5e-5 -9.8899,1.964954 -13.56445,5.097656 L 121.2832,46.701172 c 3.2393,-3.701924 5.27141,-8.486934 5.27149,-13.775391 1.5e-4,-11.591116 -9.44404,-21.036943 -21.03516,-21.037109 z m 0,4.613281 c 9.0973,1.3e-4 16.422,7.326531 16.42188,16.423828 -1.4e-4,9.097118 -7.32476,16.421745 -16.42188,16.421875 -9.097293,1.17e-4 -16.423695,-7.32458 -16.423827,-16.421875 -1.19e-4,-9.097474 7.326354,-16.423945 16.423827,-16.423828 z m 46.14258,46.662109 c 9.09729,-1.17e-4 16.4237,7.326534 16.42383,16.423829 1.2e-4,9.097474 -7.32636,16.421992 -16.42383,16.421875 -9.0973,-1.31e-4 -16.42199,-7.324578 -16.42188,-16.421875 1.4e-4,-9.097118 7.32476,-16.423698 16.42188,-16.423829 z M 58.337891,109.82813 c 9.097118,1.3e-4 16.421744,7.32475 16.421875,16.42187 1.17e-4,9.09729 -7.32458,16.42174 -16.421875,16.42187 -9.097475,1.2e-4 -16.421993,-7.3244 -16.421875,-16.42187 1.3e-4,-9.0973 7.324577,-16.42199 16.421875,-16.42187 z m 47.181639,0 c 9.09712,1.3e-4 16.42175,7.32475 16.42188,16.42187 1.1e-4,9.0973 -7.32458,16.42174 -16.42188,16.42187 -9.097472,1.2e-4 -16.423944,-7.3244 -16.423827,-16.42187 1.3e-4,-9.0973 7.326532,-16.42199 16.423827,-16.42187 z m 46.14258,0 c 9.0973,-1.2e-4 16.4237,7.32457 16.42383,16.42187 1.2e-4,9.09747 -7.32636,16.42199 -16.42383,16.42187 -9.0973,-1.3e-4 -16.42199,-7.32457 -16.42188,-16.42187 1.3e-4,-9.09712 7.32476,-16.42174 16.42188,-16.42187 z"
       id="circle2" /></g></svg>
